<svg width="47" height="56" viewBox="0 0 47 56" fill="none" xmlns="http://www.w3.org/2000/svg">
<path d="M4.76227 0.472168H35.7763L46.5863 11.3772V50.7402C46.5863 51.9952 46.0877 53.1988 45.2003 54.0862C44.3129 54.9736 43.1093 55.4722 41.8543 55.4722H4.76227C3.50727 55.4722 2.30367 54.9736 1.41624 54.0862C0.528822 53.1988 0.0302735 51.9952 0.0302735 50.7402V5.20517C0.0301422 4.58367 0.152443 3.96823 0.390189 3.394C0.627936 2.81977 0.976471 2.298 1.41589 1.85849C1.85531 1.41898 2.37701 1.07033 2.95118 0.832466C3.52536 0.594598 4.14077 0.472168 4.76227 0.472168V0.472168Z" fill="#E9F5FE"/>
<path d="M46.5873 11.3772L35.7773 0.472168V9.25617C36.1243 10.6702 37.0023 11.3762 38.4123 11.3762H46.5873V11.3772Z" fill="#1E89DD"/>
<g clip-path="url(#clip0_119_17)">
<path d="M20.8363 19.5327C21.3989 18.9701 22.162 18.654 22.9577 18.654C23.7533 18.654 24.5164 18.9701 25.079 19.5327M27.2003 17.4114C27.8192 18.0301 28.2953 18.7767 28.5951 19.5988C28.8949 20.421 29.0113 21.2987 28.9361 22.1706C28.8608 23.0425 28.5957 23.8873 28.1595 24.6459C27.7232 25.4045 27.1262 26.0585 26.4105 26.562C25.9438 26.8916 25.6093 27.4 25.6093 27.9713V31.7303L24.0183 33.3213L25.6093 34.9123L24.0183 36.5033L25.6093 38.0942L22.9577 40.7459L20.965 38.7533C20.5429 38.3311 20.3053 37.7584 20.306 37.1623L20.306 27.9713C20.306 27.4 19.9715 26.8916 19.5049 26.562C18.8256 26.0833 18.2532 25.4687 17.8239 24.7571C17.3946 24.0456 17.1178 23.2526 17.011 22.4285C16.9043 21.6043 16.9699 20.767 17.2037 19.9696C17.4375 19.1721 17.8344 18.4319 18.3693 17.7959C18.9042 17.1599 19.5653 16.6419 20.3109 16.2748C21.0564 15.9077 21.8701 15.6995 22.7003 15.6633C23.5305 15.6272 24.3592 15.7639 25.1339 16.0648C25.9085 16.3657 26.6122 16.8243 27.2003 17.4114V17.4114Z" stroke="#1E89DD" stroke-width="1.5" stroke-linecap="round" stroke-linejoin="round"/>
</g>
<defs>
<clipPath id="clip0_119_17">
<rect width="24" height="24" fill="white" transform="translate(39.9224 29.5283) rotate(136.916)"/>
</clipPath>
</defs>
</svg>
