<svg width="47" height="56" viewBox="0 0 47 56" fill="none" xmlns="http://www.w3.org/2000/svg">
<path d="M4.817 0H35.397L46.401 11.1V50.68C46.4007 51.9574 45.8931 53.1823 44.9898 54.0855C44.0864 54.9886 42.8614 55.496 41.584 55.496H4.817C3.53963 55.496 2.31455 54.9886 1.41122 54.0855C0.507887 53.1823 0.000265181 51.9574 0 50.68V4.817C0 3.53945 0.507504 2.31423 1.41087 1.41087C2.31423 0.507504 3.53945 0 4.817 0V0Z" fill="#E9F5FE"/>
<path d="M46.4 11.1L35.354 0V8.94C35.708 10.38 36.602 11.1 38.037 11.1H46.4Z" fill="#1E89DD"/>
<path d="M18.707 24.587C18.885 24.587 19.058 24.643 19.207 24.747C19.476 24.937 19.637 25.261 19.637 25.614V25.641C19.637 26.039 19.425 26.405 19.099 26.573L16.109 28.11L19.099 29.647C19.425 29.815 19.636 30.181 19.636 30.58V30.607C19.636 30.959 19.476 31.283 19.206 31.473C19.0784 31.5654 18.9275 31.6205 18.7704 31.6322C18.6132 31.6439 18.4559 31.6116 18.316 31.539L13.537 29.079C13.211 28.911 13 28.545 13 28.147V28.074C13 27.676 13.21 27.31 13.537 27.142L18.316 24.682C18.4367 24.62 18.5703 24.5874 18.706 24.587H18.707ZM28.141 24.587C28.275 24.587 28.411 24.62 28.531 24.682L33.309 27.142C33.636 27.31 33.847 27.676 33.847 28.074V28.147C33.847 28.545 33.636 28.911 33.31 29.079L28.531 31.539C28.3909 31.6116 28.2335 31.6438 28.0762 31.6322C27.9188 31.6205 27.7678 31.5654 27.64 31.473C27.5043 31.3733 27.3944 31.2426 27.3196 31.0918C27.2448 30.9409 27.2072 30.7744 27.21 30.606V30.579C27.21 30.181 27.422 29.815 27.748 29.647L30.737 28.11L27.748 26.574C27.421 26.404 27.211 26.039 27.211 25.641V25.614C27.211 25.261 27.371 24.937 27.641 24.748C27.787 24.6441 27.9618 24.5882 28.141 24.588V24.587Z" fill="#1E89DD"/>
<path d="M21.623 31.832C21.795 32.076 22.073 32.222 22.365 32.222H22.389C22.5863 32.2204 22.7779 32.1554 22.9355 32.0365C23.0931 31.9177 23.2082 31.7513 23.264 31.562L25.022 25.24C25.0659 25.0975 25.0768 24.9469 25.0538 24.7996C25.0307 24.6523 24.9744 24.5122 24.889 24.39C24.8055 24.2705 24.6945 24.1727 24.5654 24.1048C24.4363 24.037 24.2928 24.001 24.147 24H24.123C23.9257 24.0016 23.7341 24.0666 23.5765 24.1855C23.4189 24.3043 23.3038 24.4707 23.248 24.66L21.489 30.983C21.4454 31.1254 21.4347 31.2759 21.458 31.423C21.4812 31.5701 21.5376 31.71 21.623 31.832V31.832Z" fill="#00244E"/>
</svg>
