<svg width="47" height="56" viewBox="0 0 47 56" fill="none" xmlns="http://www.w3.org/2000/svg">
<path d="M4.76179 0.472168H35.7758L46.5858 11.3772V50.7402C46.5858 51.9952 46.0872 53.1988 45.1998 54.0862C44.3124 54.9736 43.1088 55.4722 41.8538 55.4722H4.76179C3.50678 55.4722 2.30318 54.9736 1.41576 54.0862C0.528334 53.1988 0.0297853 51.9952 0.0297853 50.7402V5.20517C0.0296539 4.58367 0.151955 3.96823 0.389701 3.394C0.627447 2.81977 0.975983 2.298 1.4154 1.85849C1.85482 1.41898 2.37652 1.07033 2.9507 0.832466C3.52487 0.594598 4.14029 0.472168 4.76179 0.472168V0.472168Z" fill="#E9F5FE"/>
<path d="M46.5868 11.3772L35.7768 0.472168V9.25617C36.1238 10.6702 37.0018 11.3762 38.4118 11.3762H46.5868V11.3772Z" fill="#1E89DD"/>
<path d="M36.6708 34.3692H30.0048C29.7638 34.3676 29.532 34.4616 29.3603 34.6307C29.1885 34.7998 29.0909 35.0302 29.0888 35.2712C29.0888 35.7692 29.4988 36.1732 30.0048 36.1732H36.6708C36.9118 36.1748 37.1436 36.0807 37.3153 35.9116C37.487 35.7425 37.5847 35.5122 37.5868 35.2712C37.5847 35.0302 37.487 34.7998 37.3153 34.6307C37.1436 34.4616 36.9118 34.3676 36.6708 34.3692V34.3692Z" fill="#07264F" stroke="#07264F"/>
<path d="M10.1538 36.1732H25.3638C25.9028 36.1732 26.3398 35.7692 26.3398 35.2712C26.3398 34.7732 25.9028 34.3692 25.3638 34.3692H10.1538C9.61479 34.3692 9.17779 34.7732 9.17779 35.2712C9.17779 35.7692 9.61479 36.1732 10.1538 36.1732V36.1732Z" fill="#1E89DD" stroke="#1E89DD"/>
<path d="M9.89079 29.3692H13.5568C13.6763 29.3701 13.7948 29.3475 13.9056 29.3026C14.0163 29.2577 14.1172 29.1915 14.2023 29.1076C14.2875 29.0237 14.3553 28.9239 14.4018 28.8139C14.4484 28.7038 14.4729 28.5857 14.4738 28.4662C14.4717 28.225 14.3739 27.9945 14.202 27.8254C14.03 27.6563 13.798 27.5623 13.5568 27.5642H9.89079C9.64978 27.5626 9.41798 27.6567 9.24626 27.8258C9.07453 27.9949 8.9769 28.2252 8.97478 28.4662C8.97478 28.9652 9.38479 29.3692 9.89079 29.3692Z" fill="#07264F" stroke="#07264F"/>
<path d="M36.4088 27.5642H18.1988C17.6588 27.5642 17.2228 27.9682 17.2228 28.4662C17.2228 28.9652 17.6598 29.3692 18.1978 29.3692H36.4078C36.9478 29.3692 37.3838 28.9652 37.3838 28.4662C37.3838 27.9682 36.9468 27.5642 36.4088 27.5642Z" fill="#1E89DD" stroke="#1E89DD"/>
<path d="M36.4678 22.8092H32.8018C32.5608 22.8108 32.329 22.7167 32.1573 22.5476C31.9855 22.3785 31.8879 22.1482 31.8858 21.9072C31.8879 21.6662 31.9855 21.4358 32.1573 21.2667C32.329 21.0976 32.5608 21.0036 32.8018 21.0052H36.4678C36.7088 21.0036 36.9406 21.0976 37.1123 21.2667C37.284 21.4358 37.3817 21.6662 37.3838 21.9072C37.3817 22.1482 37.284 22.3785 37.1123 22.5476C36.9406 22.7167 36.7088 22.8108 36.4678 22.8092V22.8092Z" fill="#07264F" stroke="#07264F"/>
<path d="M9.94979 21.0052H28.1598C28.6998 21.0052 29.1358 21.4082 29.1358 21.9072C29.1358 22.4052 28.6998 22.8092 28.1608 22.8092H9.94979C9.40979 22.8092 8.97379 22.4052 8.97379 21.9072C8.97379 21.4082 9.41079 21.0052 9.94979 21.0052Z" fill="#1E89DD" stroke="#1E89DD"/>
</svg>
