<svg width="65" height="64" viewBox="0 0 65 64" fill="none" xmlns="http://www.w3.org/2000/svg">
<path fill-rule="evenodd" clip-rule="evenodd" d="M22.3423 4H47.8202L57.6054 13.6281V46.1404C57.6054 49.4541 54.9192 52.1404 51.6054 52.1404H22.3423C19.0286 52.1404 16.3423 49.4541 16.3423 46.1404V10C16.3423 6.68629 19.0286 4 22.3423 4Z" fill="#E9F5FE"/>
<path fill-rule="evenodd" clip-rule="evenodd" d="M57.6055 13.8246L47.7809 3.99999V11.9518C48.0954 13.2003 48.8905 13.8246 50.1665 13.8246C51.4424 13.8246 53.9221 13.8246 57.6055 13.8246Z" fill="#1E89DD"/>
<path fill-rule="evenodd" clip-rule="evenodd" d="M13.5 11.8596H38.9779L48.7632 21.4877V54C48.7632 57.3137 46.0769 60 42.7632 60H13.5C10.1863 60 7.5 57.3137 7.5 54V17.8596C7.5 14.5459 10.1863 11.8596 13.5 11.8596Z" fill="#E9F5FE"/>
<path fill-rule="evenodd" clip-rule="evenodd" d="M48.7632 21.6842L38.9386 11.8596V19.8115C39.2531 21.06 40.0483 21.6842 41.3242 21.6842C42.6001 21.6842 45.0798 21.6842 48.7632 21.6842Z" fill="#1E89DD"/>
<path d="M18.7881 29.1838C18.4957 29.0326 18.3071 28.7047 18.3071 28.3485V28.2826C18.3071 27.9258 18.4959 27.5978 18.7881 27.4472L23.0669 25.243C23.1752 25.1873 23.2962 25.1579 23.4169 25.1579C23.5769 25.1579 23.7319 25.2077 23.8649 25.3019C24.1055 25.4716 24.2493 25.7621 24.2493 26.0784V26.1024C24.2493 26.4593 24.0603 26.7872 23.7679 26.9378L21.0916 28.3154L23.7679 29.693C24.0603 29.8434 24.2493 30.1713 24.2493 30.5284V30.5526C24.2493 30.8685 24.1055 31.1588 23.8649 31.3291C23.7305 31.4238 23.576 31.4737 23.4174 31.4737C23.2956 31.4737 23.1779 31.4449 23.0672 31.3882L18.7881 29.1838ZM26.0281 31.6507C25.8737 31.4322 25.829 31.1478 25.9084 30.8894L27.4831 25.2229C27.5926 24.8694 27.9077 24.6316 28.2671 24.6316H28.2883C28.55 24.6316 28.7985 24.7621 28.953 24.9809C29.1075 25.1999 29.1519 25.4848 29.0719 25.7428L27.4975 31.4086C27.388 31.7621 27.0732 32 26.7139 32H26.6927C26.431 32 26.1825 31.8694 26.0281 31.6507ZM31.0317 26.1023V26.1022H31.0319V26.0783C31.0319 25.762 31.1756 25.4716 31.4165 25.3016C31.5495 25.2076 31.7047 25.1579 31.8644 25.1579C31.9851 25.1579 32.106 25.1873 32.2139 25.2429L36.4926 27.4471C36.785 27.5977 36.9738 27.9257 36.9738 28.2824V28.3483C36.9738 28.7047 36.785 29.0326 36.4929 29.1836L32.2142 31.3879C32.1028 31.4449 31.9851 31.4737 31.8635 31.4737C31.7047 31.4737 31.55 31.4237 31.4161 31.3291C31.1753 31.1587 31.0317 30.8684 31.0317 30.5524V30.5282C31.0317 30.1713 31.2206 29.8434 31.5129 29.6928L34.1892 28.3154L31.5129 26.9381C31.2204 26.7868 31.0317 26.4589 31.0317 26.1023Z" fill="#1E89DD"/>
<path d="M40.0127 41.9614H16.2509C15.7588 41.9614 15.3599 42.3256 15.3599 42.7747C15.3599 43.2239 15.7588 43.5881 16.2509 43.5881H40.0127C40.5048 43.5881 40.9037 43.2239 40.9037 42.7747C40.9037 42.3256 40.5048 41.9614 40.0127 41.9614Z" fill="#1E89DD"/>
<path d="M40.0799 37.8947H36.784C36.3289 37.8947 35.96 38.2589 35.96 38.7081C35.96 39.1573 36.3289 39.5214 36.784 39.5214H40.0799C40.535 39.5214 40.9039 39.1573 40.9039 38.7081C40.9039 38.2589 40.535 37.8947 40.0799 37.8947Z" fill="#1E89DD"/>
<path d="M16.237 39.5214H32.6106C33.095 39.5214 33.4878 39.1573 33.4878 38.7081C33.4878 38.2589 33.095 37.8947 32.6106 37.8947H16.237C15.7526 37.8947 15.3599 38.2589 15.3599 38.7081C15.3599 39.1573 15.7526 39.5214 16.237 39.5214Z" fill="#1E89DD"/>
<path d="M16.1837 46.028H19.4797C19.9348 46.028 20.3037 46.3922 20.3037 46.8414C20.3037 47.2906 19.9348 47.6547 19.4797 47.6547H16.1837C15.7287 47.6547 15.3597 47.2906 15.3597 46.8414C15.3597 46.3922 15.7287 46.028 16.1837 46.028Z" fill="#1E89DD"/>
<path d="M40.0267 47.6547H23.6531C23.1686 47.6547 22.7759 47.2906 22.7759 46.8414C22.7759 46.3922 23.1686 46.028 23.6531 46.028H40.0267C40.5111 46.028 40.9038 46.3922 40.9038 46.8414C40.9038 47.2906 40.5111 47.6547 40.0267 47.6547Z" fill="#1E89DD"/>
</svg>
