<svg width="65" height="64" viewBox="0 0 65 64" fill="none" xmlns="http://www.w3.org/2000/svg">
<path fill-rule="evenodd" clip-rule="evenodd" d="M33.0016 11.8445C21.6523 16.0989 11.286 9.90779 8.7546 23.6032C6.22323 37.2987 23.2966 37.7803 27.7047 30.7993C28.8842 28.6856 32.9906 22.8321 35.7162 15.3773C36.0198 14.5467 36.0746 14.0595 35.2131 13.199C34.3516 12.3386 33.8922 11.5161 33.0016 11.8445Z" fill="#1E89DD"/>
<path d="M20.5302 28.4738V14.8374H21.4038V28.4738H20.5302ZM23.4705 18.9284C23.4066 18.3886 23.1474 17.9695 22.6928 17.6712C22.2383 17.373 21.6808 17.2238 21.0202 17.2238C20.5373 17.2238 20.1147 17.3019 19.7525 17.4582C19.3938 17.6144 19.1133 17.8293 18.9109 18.1027C18.712 18.3761 18.6126 18.6869 18.6126 19.0349C18.6126 19.3261 18.6818 19.5764 18.8203 19.7859C18.9624 19.9919 19.1435 20.1641 19.3636 20.3026C19.5838 20.4376 19.8146 20.5494 20.0561 20.6382C20.2976 20.7234 20.5195 20.7927 20.7219 20.846L21.8299 21.1443C22.114 21.2188 22.43 21.3218 22.7781 21.4532C23.1296 21.5846 23.4652 21.7639 23.7848 21.9912C24.108 22.2149 24.3743 22.5026 24.5838 22.8541C24.7933 23.2057 24.8981 23.6372 24.8981 24.1485C24.8981 24.738 24.7436 25.2707 24.4347 25.7465C24.1293 26.2224 23.6818 26.6006 23.0923 26.8811C22.5064 27.1617 21.7944 27.3019 20.9563 27.3019C20.1751 27.3019 19.4986 27.1759 18.9268 26.9237C18.3587 26.6716 17.9112 26.32 17.5845 25.869C17.2614 25.4181 17.0785 24.8943 17.0359 24.2977H18.3995C18.435 24.7096 18.5735 25.0505 18.815 25.3204C19.06 25.5867 19.369 25.7856 19.7418 25.917C20.1183 26.0448 20.5231 26.1087 20.9563 26.1087C21.4606 26.1087 21.9134 26.0271 22.3146 25.8637C22.7159 25.6968 23.0337 25.466 23.2681 25.1712C23.5025 24.873 23.6197 24.5249 23.6197 24.1272C23.6197 23.765 23.5185 23.4703 23.3161 23.243C23.1136 23.0157 22.8473 22.831 22.517 22.689C22.1868 22.547 21.8299 22.4227 21.4464 22.3161L20.104 21.9326C19.2518 21.6876 18.5771 21.3378 18.0799 20.8833C17.5827 20.4287 17.3342 19.8339 17.3342 19.0988C17.3342 18.488 17.4993 17.9553 17.8295 17.5008C18.1634 17.0427 18.6108 16.6876 19.1719 16.4355C19.7365 16.1798 20.3668 16.0519 21.0629 16.0519C21.766 16.0519 22.391 16.178 22.9379 16.4301C23.4847 16.6787 23.918 17.0196 24.2376 17.4529C24.5607 17.8861 24.7312 18.3779 24.7489 18.9284H23.4705Z" fill="white"/>
<path fill-rule="evenodd" clip-rule="evenodd" d="M34.4921 39.3766C33.7443 40.3495 32.6618 41.5026 31.2446 42.8357C28.482 45.4343 25.3819 46.003 21.9443 44.5418C18.8098 42.7442 16.9063 41.482 16.2336 40.7552C15.2247 39.665 15.836 36.5619 18.9485 37.6621C22.061 38.7624 25.0078 42.0684 27.3189 37.7736C28.2189 36.1012 29.004 34.5346 29.6742 33.0736C29.6595 33.0548 29.6448 33.036 29.6301 33.0171L30.8353 30.3596C30.8678 30.2771 30.8998 30.195 30.9314 30.1133L30.9408 30.127L36.0553 18.8489C36.6804 17.4706 38.2343 16.7737 39.6793 17.2236C40.1865 17.3815 40.6595 17.4604 41.0985 17.4604C42.5626 17.4604 43.9266 18.1466 44.8006 19.2881H47.4321C48.493 19.2881 49.3531 20.1482 49.3531 21.209C49.3531 22.2699 48.493 23.1299 47.4321 23.1299H46.9681L48.0227 25.0536C48.4936 25.9124 49.5171 26.3039 50.4409 25.9785L52.1122 25.3898C53.8851 24.9557 54.9782 25.34 55.3912 26.5427C55.8043 27.7454 55.2565 28.7757 53.7478 29.6336L47.8836 31.5874C46.9779 31.8892 45.9852 31.5088 45.5131 30.679L43.389 26.9458C43.2951 26.7807 43.156 26.6457 42.9881 26.5567C42.5001 26.2982 41.8949 26.4841 41.6363 26.9721C40.8395 28.4757 40.3083 29.6483 40.0426 30.4897C39.5136 32.1649 38.8732 33.1397 39.5053 34.8853C40.1374 36.6309 42.5388 39.377 44.5171 42.8468C45.836 45.16 47.4441 48.3824 49.3413 52.514C50.4172 55.3545 50.1452 57.1256 48.5254 57.8272C46.9056 58.5288 45.5696 57.8106 44.5171 55.6726C43.8905 53.8322 42.5021 51.1963 40.3518 47.7647C38.9789 45.5738 37.0257 42.7777 34.4921 39.3766ZM43.5567 16.4068C39.5784 16.4068 36.3533 13.1817 36.3533 9.20339C36.3533 5.22507 39.5784 2 43.5567 2C47.535 2 50.7601 5.22507 50.7601 9.20339C50.7601 13.1817 47.535 16.4068 43.5567 16.4068Z" fill="#E9F5FE"/>
<path d="M43.4998 62C48.1022 62 51.8332 61.2538 51.8332 60.3333C51.8332 59.4128 48.1022 58.6667 43.4998 58.6667C38.8975 58.6667 35.1665 59.4128 35.1665 60.3333C35.1665 61.2538 38.8975 62 43.4998 62Z" fill="#1E89DD"/>
</svg>
