<svg width="65" height="64" viewBox="0 0 65 64" fill="none" xmlns="http://www.w3.org/2000/svg">
<path d="M24.4102 35.0737V43.4002C24.4102 44.1015 24.8131 44.7303 25.4261 44.9814C25.6127 45.0583 25.8078 45.0968 26.0008 45.0968C26.4398 45.0968 26.8704 44.9022 27.1779 44.5403L32.4588 38.3401L24.4102 35.0737Z" fill="#00244E"/>
<path d="M58.3581 3.11111L8.36866 22.1992C7.72658 22.4435 7.30444 23.0521 7.30665 23.7306C7.30889 24.409 7.73546 25.0133 8.37977 25.2533L22.1613 30.3994L52.1105 11.5448L27.4046 32.3562L47.8159 39.9784C48.0069 40.0482 48.2091 40.0853 48.4091 40.0853C48.6601 40.0853 48.9112 40.0307 49.1422 39.9195C49.5577 39.7188 49.8688 39.361 50.0043 38.9291L60.5576 5.1159C60.742 4.51599 60.5643 3.86373 60.0955 3.43615C59.6289 3.01076 58.9535 2.88424 58.3581 3.11111Z" fill="#E9F5FE"/>
<path d="M24.1452 48.8387C23.5086 54.9194 15.5511 58.0363 15.2159 53.7993C14.8807 49.5623 26.1028 52.0814 23.5086 56.9993C20.9143 61.9172 9.0188 62.7343 4.5 56.9993" stroke="#1E89DD" stroke-width="2" stroke-linecap="round"/>
</svg>
