<svg width="44" height="40" viewBox="0 0 44 40" fill="none" xmlns="http://www.w3.org/2000/svg">
<path fill-rule="evenodd" clip-rule="evenodd" d="M16.1668 3.125C18.5731 -1.04167 24.5897 -1.04167 26.9939 3.125L42.3168 29.6833C44.721 33.85 41.7126 39.0583 36.9022 39.0583H6.25847C1.44805 39.0583 -1.5582 33.85 0.845969 29.6833L16.1647 3.125H16.1668ZM21.5814 14.0562C21.9958 14.0562 22.3932 14.2209 22.6862 14.5139C22.9793 14.8069 23.1439 15.2043 23.1439 15.6187V23.4312C23.1439 23.8456 22.9793 24.2431 22.6862 24.5361C22.3932 24.8291 21.9958 24.9937 21.5814 24.9937C21.167 24.9937 20.7696 24.8291 20.4765 24.5361C20.1835 24.2431 20.0189 23.8456 20.0189 23.4312V15.6187C20.0189 15.2043 20.1835 14.8069 20.4765 14.5139C20.7696 14.2209 21.167 14.0562 21.5814 14.0562ZM21.5814 31.2437C21.9958 31.2437 22.3932 31.0791 22.6862 30.7861C22.9793 30.4931 23.1439 30.0956 23.1439 29.6812C23.1439 29.2668 22.9793 28.8694 22.6862 28.5764C22.3932 28.2834 21.9958 28.1187 21.5814 28.1187C21.167 28.1187 20.7696 28.2834 20.4765 28.5764C20.1835 28.8694 20.0189 29.2668 20.0189 29.6812C20.0189 30.0956 20.1835 30.4931 20.4765 30.7861C20.7696 31.0791 21.167 31.2437 21.5814 31.2437Z" fill="#E8B502"/>
</svg>
